<svg xmlns="http://www.w3.org/2000/svg" viewBox="0 0 357.94 98.73"><defs><style>.cls-1{fill:#b8bd57;}.cls-2{fill:#e2e8f1;}.cls-3{fill:#fbbe00;}.cls-4{fill:#56597c;}.cls-5{fill:#7e7a4a;}.cls-6{fill:#697cb7;}.cls-7{fill:#4b4846;}</style></defs><g id="Layer_2" data-name="Layer 2"><g id="Layer_1-2" data-name="Layer 1"><path class="cls-1" d="M9.59,65.24c-.26.2-.52.39-.77.6A10.78,10.78,0,0,0,6,69.05C4,73.24,2.12,77.51.35,81.81a5.16,5.16,0,0,0-.16,3.27,3.56,3.56,0,0,0,2,1.87c.36.13,1.37-.86,1.72-1.53,1.45-2.8,2.81-5.65,4.1-8.52a7.15,7.15,0,0,1,1.54-2.28V65.24Z"/><path class="cls-2" d="M62.23,82.28H63V80.84Z"/><path class="cls-2" d="M77.35,71.55c-2.81-4.47-6.45-4.74-9.18-.28-1.89,3.09-3.53,6.34-5.19,9.57v1.44h17.8V76.53A58.62,58.62,0,0,1,77.35,71.55Z"/><path class="cls-2" d="M61.79,83.13c-.84,1.59-1.17,2.85.76,4.23a3.19,3.19,0,0,1,.43.37V82.28h-.75Z"/><path class="cls-2" d="M98.57,35v-2.1H95.92A8.47,8.47,0,0,1,98.57,35Z"/><path class="cls-2" d="M84.42,32.91H80.78v3Z"/><path class="cls-2" d="M80.78,76.53v5.75H86.3c-1.25-1.17-2.48-2.35-3.66-3.58A27.6,27.6,0,0,1,80.78,76.53Z"/><path class="cls-2" d="M21.29,32.91a14.78,14.78,0,0,0,.91,1.37c1.38,1.81,2.91,2.76,5.19,2.42V32.91Z"/><path class="cls-2" d="M89.43,52.89c-.93,4.23-2.42,8.28-2,12.93H98.57V49.37H91.5A6.67,6.67,0,0,0,89.43,52.89Z"/><path class="cls-2" d="M95.87,84.31a4.92,4.92,0,0,0,2.7,1.62V82.28H94.66C95.07,83,95.48,83.63,95.87,84.31Z"/><path class="cls-2" d="M87.42,66c.62,6.42,4.13,11.25,7.24,16.32h3.91V65.82H87.42Z"/><path class="cls-2" d="M94.85,47.44a9,9,0,0,0-3.35,1.93h7.07V47.15l-.26,0A13.58,13.58,0,0,0,94.85,47.44Z"/><path class="cls-2" d="M51.66,65.34c-1,.11-2,.28-3,.48h6.38A8.59,8.59,0,0,0,51.66,65.34Z"/><rect class="cls-2" x="62.98" y="16.46" width="17.8" height="16.46"/><path class="cls-2" d="M40.55,68a3.81,3.81,0,0,0-1.89,1.46c-2.28,3.26-4.37,6.64-6.71,9.85a3.59,3.59,0,0,0-.86,2.94H45.18V66.7C43.63,67.13,42.09,67.6,40.55,68Z"/><path class="cls-2" d="M27.39,32.91V36.7c.26-.05.53-.09.82-.17a37,37,0,0,1,17-.47V32.91Z"/><path class="cls-2" d="M63,41.07V32.91H45.18v3.15A49.19,49.19,0,0,1,55,39.17,24.69,24.69,0,0,0,63,41.07Z"/><path class="cls-2" d="M22.28,12.92a17.33,17.33,0,0,0-2.89,3.54h8V11.41A5,5,0,0,0,22.28,12.92Z"/><path class="cls-2" d="M18.22,22.6c.61,3.56,1.19,7.16,3.07,10.31h6.1V16.46h-8A8.77,8.77,0,0,0,18.22,22.6Z"/><rect class="cls-2" x="45.18" y="16.46" width="17.8" height="16.46"/><rect class="cls-2" x="98.57" width="17.8" height="16.46"/><path class="cls-2" d="M24.32,74a11.05,11.05,0,0,0,.84-2.86c.28-1.94-.73-2.64-2.64-1.92-3.4,1.28-6.76,2.69-10.22,3.8a6.52,6.52,0,0,0-2.71,1.57v7.66h14.9A9.2,9.2,0,0,1,24.32,74Z"/><path class="cls-2" d="M63,82.28v5.45a1.56,1.56,0,0,1,0,2.57v8.43h17.8V82.28Z"/><path class="cls-2" d="M98.57,35c1.15,1.31,2,2.85,3.14,4.2.92,1.13,2.23,2.16,1.18,3.89s-1.92,3.77-4.32,4v2.22h17.8V32.91H98.57Z"/><path class="cls-2" d="M98.57,85.93c.54.18,1.07.36,1.54.57,1.44.63,3.56.59,3.42,2.86-.09,1.31-2.69,2.25-4.76,1.51l-.2-.08v7.94h17.8V82.28H98.57Z"/><path class="cls-2" d="M61.88,90.87C58,92.13,56.29,90.43,56,85.44c.28-1.06.55-2.11.83-3.16H45.18V98.73H63V90.3A3.35,3.35,0,0,1,61.88,90.87Z"/><path class="cls-2" d="M31.09,82.28a4,4,0,0,0,1.14,1.89c1.73,1.75,3.14,3.81,6,4.2.82.11,1.47,1.54,2.2,2.36-1,.67-2.07,1.92-3.09,1.9-2.46,0-5-.37-6.7-2.64-1-1.29-2.13-2.44-3.21-3.65V98.73H45.18V82.28Z"/><path class="cls-2" d="M32.5,10.33a1.73,1.73,0,0,1-2.06,2.4,1.52,1.52,0,0,1-.46-.18,10.57,10.57,0,0,0-2.59-1.14v5.05H45.18V0H27.39V5.49A6.35,6.35,0,0,1,32.5,10.33Z"/><rect class="cls-2" x="62.98" width="17.8" height="16.46"/><rect class="cls-2" x="80.78" width="17.8" height="16.46"/><rect class="cls-2" x="98.57" y="49.37" width="17.8" height="16.46"/><path class="cls-2" d="M17.1,54.65a13.59,13.59,0,0,1,.31-5.28H9.59V65.24c1.58-1.23,3.28-2.31,4.78-3.63C16.42,59.81,17.71,57.83,17.1,54.65Z"/><path class="cls-2" d="M25.5,5.2a14.45,14.45,0,0,1,1.89.29V0H9.59V16.46h2.19C14,10.56,19.47,4.68,25.5,5.2Z"/><path class="cls-2" d="M10.78,21.71a14.44,14.44,0,0,1,1-5.25H9.59V32.91H12.7A32.54,32.54,0,0,1,10.78,21.71Z"/><path class="cls-2" d="M80.78,32.91h3.64l4.68-3.84c.82-.68,1.52-1.5,2.28-2.26.09,1.65,3,1.1,2.54,3.41a2.78,2.78,0,0,0,1.26,2.35,5.56,5.56,0,0,1,.74.34h2.65V16.46H80.78Z"/><path class="cls-3" d="M63,41.07a24.69,24.69,0,0,1-8-1.9,49.19,49.19,0,0,0-9.79-3.11V49.37H63Z"/><path class="cls-1" d="M27.39,86.34c1.08,1.21,2.23,2.36,3.21,3.65,1.73,2.27,4.24,2.61,6.7,2.64,1,0,2.06-1.23,3.09-1.9-.73-.82-1.38-2.25-2.2-2.36-2.82-.39-4.23-2.45-6-4.2a4,4,0,0,1-1.14-1.89h-3.7Z"/><path class="cls-3" d="M24.49,82.28a16.67,16.67,0,0,0,2.15,3.21c.24.29.49.57.75.85V82.28Z"/><path class="cls-1" d="M98.77,90.87c2.07.74,4.67-.2,4.76-1.51.14-2.27-2-2.23-3.42-2.86-.47-.21-1-.39-1.54-.57v4.86Z"/><path class="cls-3" d="M63,87.73V90.3A1.56,1.56,0,0,0,63,87.73Z"/><path class="cls-4" d="M102.89,43.1c1-1.73-.26-2.76-1.18-3.89-1.1-1.35-2-2.89-3.14-4.2V47.15C101,46.87,101.82,44.87,102.89,43.1Z"/><path class="cls-5" d="M63,80.84c1.66-3.23,3.3-6.48,5.19-9.57,2.73-4.46,6.37-4.19,9.18.28a58.62,58.62,0,0,0,3.43,5V65.82H63Z"/><path class="cls-3" d="M45.18,66.7c1.17-.33,2.34-.63,3.52-.88H45.18Z"/><path class="cls-3" d="M87.42,65.82c-.41-4.65,1.08-8.7,2-12.93a6.67,6.67,0,0,1,2.07-3.52H80.78V65.82Z"/><path class="cls-6" d="M95.18,32.57a2.78,2.78,0,0,1-1.26-2.35c.49-2.31-2.45-1.76-2.54-3.41-.76.76-1.46,1.58-2.28,2.26l-4.68,3.84h11.5A5.56,5.56,0,0,0,95.18,32.57Z"/><path class="cls-3" d="M30,12.55a1.52,1.52,0,0,0,.46.18,1.73,1.73,0,0,0,2.06-2.4,6.35,6.35,0,0,0-5.11-4.84v5.92A10.57,10.57,0,0,1,30,12.55Z"/><path class="cls-4" d="M74.07,40.23A44.81,44.81,0,0,1,63,41.07v8.3h17.8V35.87q-2.19,1.77-4.39,3.53A5.34,5.34,0,0,1,74.07,40.23Z"/><path class="cls-5" d="M61.79,83.13l.44-.85H56.84c-.28,1-.55,2.1-.83,3.16.28,5,2,6.69,5.87,5.43A3.35,3.35,0,0,0,63,90.3V87.73a3.19,3.19,0,0,0-.43-.37C60.62,86,61,84.72,61.79,83.13Z"/><path class="cls-3" d="M63,80.84v-15h-7.9c1.09.34,2.17.79,3.21,1.15A2.67,2.67,0,0,1,60,70.61c-.38,1.28-.73,2.56-1.07,3.84l-2.07,7.83h5.39Z"/><path class="cls-4" d="M87.42,66v-.14H80.78V76.53a27.6,27.6,0,0,0,1.86,2.17c1.18,1.23,2.41,2.41,3.66,3.58h8.36C91.55,77.21,88,72.38,87.42,66Z"/><path class="cls-5" d="M95.92,32.91H84.42l-3.64,3v13.5H91.5a9,9,0,0,1,3.35-1.93,13.58,13.58,0,0,1,3.46-.25l.26,0V35A8.47,8.47,0,0,0,95.92,32.91Z"/><path class="cls-1" d="M45.18,49.37V65.82H48.7c1-.2,2-.37,3-.48a8.59,8.59,0,0,1,3.42.48H63V49.37Z"/><path class="cls-7" d="M12.3,73.05c3.46-1.11,6.82-2.52,10.22-3.8,1.91-.72,2.92,0,2.64,1.92A11.05,11.05,0,0,1,24.32,74a9.2,9.2,0,0,0,.17,8.25h2.9V65.82H9.59v8.8A6.52,6.52,0,0,1,12.3,73.05Z"/><path class="cls-5" d="M95.87,84.31c-.39-.68-.8-1.36-1.21-2H86.3c2,1.89,4.13,3.72,6.3,5.45a20.58,20.58,0,0,0,6,3.06V85.93A4.92,4.92,0,0,1,95.87,84.31Z"/><path class="cls-1" d="M22.28,12.92a5,5,0,0,1,5.11-1.51V5.49A14.45,14.45,0,0,0,25.5,5.2c-6-.52-11.53,5.36-13.72,11.26h7.61A17.33,17.33,0,0,1,22.28,12.92Z"/><path class="cls-6" d="M18.22,22.6a8.77,8.77,0,0,1,1.17-6.14H11.78a14.44,14.44,0,0,0-1,5.25,32.54,32.54,0,0,0,1.92,11.2h8.59C19.41,29.76,18.83,26.16,18.22,22.6Z"/><rect class="cls-6" x="62.98" y="49.37" width="17.8" height="16.46"/><path class="cls-5" d="M32,79.34c2.34-3.21,4.43-6.59,6.71-9.85A3.81,3.81,0,0,1,40.55,68c1.54-.43,3.08-.9,4.63-1.33v-.88H27.39V82.28h3.7A3.59,3.59,0,0,1,32,79.34Z"/><path class="cls-3" d="M22.2,34.28a14.78,14.78,0,0,1-.91-1.37H12.7a21.21,21.21,0,0,0,3.48,5.92c2.06,2.49,2.42,5.3,1.69,8.45-.15.68-.32,1.38-.46,2.09h10V36.7C25.11,37,23.58,36.09,22.2,34.28Z"/><rect class="cls-3" x="27.39" y="49.37" width="17.8" height="16.46"/><path class="cls-6" d="M45.18,36.06a37,37,0,0,0-17,.47c-.29.08-.56.12-.82.17V49.37H45.18Z"/><path class="cls-3" d="M140.2,17.54l-3,3.26v8.07h-5.82V.63h5.82v12.8l2.56-3.51L146.93.63h7.16l-10,12.55,10.32,15.69h-6.92Z"/><path class="cls-3" d="M168.36,28.87A6.54,6.54,0,0,1,167.8,27a6.79,6.79,0,0,1-5.29,2.27,7.44,7.44,0,0,1-5.11-1.79,5.69,5.69,0,0,1-2-4.5,5.93,5.93,0,0,1,2.47-5.12c1.65-1.18,4-1.79,7.15-1.8h2.58v-1.2a3.45,3.45,0,0,0-.75-2.33,2.92,2.92,0,0,0-2.35-.87,3.28,3.28,0,0,0-2.22.68,2.29,2.29,0,0,0-.81,1.86h-5.61A5.65,5.65,0,0,1,157,10.81a7.48,7.48,0,0,1,3.18-2.43,11.57,11.57,0,0,1,4.62-.88,9.13,9.13,0,0,1,6.15,1.95,6.81,6.81,0,0,1,2.28,5.48V24a10.17,10.17,0,0,0,.84,4.52v.33ZM163.73,25a4.81,4.81,0,0,0,2.29-.55,3.64,3.64,0,0,0,1.55-1.48V19.33h-2.1q-4.2,0-4.48,2.91l0,.33a2.23,2.23,0,0,0,.74,1.72A2.84,2.84,0,0,0,163.73,25Z"/><path class="cls-3" d="M184.21,2.73V7.89h3.59V12h-3.59V22.47a2.49,2.49,0,0,0,.45,1.67,2.21,2.21,0,0,0,1.7.5,9,9,0,0,0,1.65-.13v4.25a11.74,11.74,0,0,1-3.39.5c-3.93,0-5.94-2-6-6V12h-3.07V7.89h3.07V2.73Z"/><path class="cls-3" d="M197.63,2.73V7.89h3.59V12h-3.59V22.47a2.49,2.49,0,0,0,.45,1.67,2.24,2.24,0,0,0,1.71.5,8.86,8.86,0,0,0,1.64-.13v4.25a11.69,11.69,0,0,1-3.39.5q-5.89,0-6-6V12H189V7.89H192V2.73Z"/><path class="cls-3" d="M216.5,28.87a6.54,6.54,0,0,1-.56-1.88,6.79,6.79,0,0,1-5.29,2.27,7.44,7.44,0,0,1-5.11-1.79,5.69,5.69,0,0,1-2-4.5A5.93,5.93,0,0,1,206,17.85c1.65-1.18,4-1.79,7.15-1.8h2.58v-1.2a3.45,3.45,0,0,0-.75-2.33,2.94,2.94,0,0,0-2.35-.87,3.32,3.32,0,0,0-2.23.68,2.31,2.31,0,0,0-.8,1.86H204a5.65,5.65,0,0,1,1.13-3.38,7.48,7.48,0,0,1,3.18-2.43,11.57,11.57,0,0,1,4.62-.88,9.13,9.13,0,0,1,6.15,1.95,6.81,6.81,0,0,1,2.28,5.48V24a10,10,0,0,0,.84,4.52v.33ZM211.87,25a4.81,4.81,0,0,0,2.29-.55,3.64,3.64,0,0,0,1.55-1.48V19.33h-2.1q-4.2,0-4.48,2.91l0,.33a2.23,2.23,0,0,0,.74,1.72A2.84,2.84,0,0,0,211.87,25Z"/><path class="cls-6" d="M137.7,37.15v5.16h3.59v4.11H137.7V56.9a2.46,2.46,0,0,0,.45,1.66,2.2,2.2,0,0,0,1.7.51,9,9,0,0,0,1.65-.14v4.25a11.41,11.41,0,0,1-3.39.5c-3.93,0-5.94-2-6-6V46.42H129V42.31h3.07V37.15Z"/><path class="cls-6" d="M154.07,63.68a10.31,10.31,0,0,1-7.52-2.83,10.05,10.05,0,0,1-2.89-7.54v-.54a12.62,12.62,0,0,1,1.22-5.66,9,9,0,0,1,3.46-3.84,9.7,9.7,0,0,1,5.11-1.35,8.72,8.72,0,0,1,6.78,2.72q2.47,2.72,2.47,7.7v2.29H149.34A5.18,5.18,0,0,0,151,57.92a4.94,4.94,0,0,0,3.46,1.25,6.05,6.05,0,0,0,5.06-2.35l2.76,3.08a8.51,8.51,0,0,1-3.42,2.79A11.25,11.25,0,0,1,154.07,63.68Zm-.64-17.24a3.54,3.54,0,0,0-2.71,1.13,5.85,5.85,0,0,0-1.32,3.24h7.79v-.45a4.11,4.11,0,0,0-1-2.89A3.57,3.57,0,0,0,153.43,46.44Z"/><path class="cls-6" d="M173.5,54.88l-2,2v6.4h-5.61V33.51h5.61V50l1.08-1.4,5.38-6.3h6.73l-7.59,8.75,8.25,12.24H178.9Z"/><path class="cls-6" d="M192.26,42.31l.17,2.43a7.34,7.34,0,0,1,6-2.82,6.09,6.09,0,0,1,5,2c1.09,1.31,1.64,3.26,1.67,5.86V63.3h-5.6V49.88a3.61,3.61,0,0,0-.78-2.59,3.47,3.47,0,0,0-2.58-.81,3.85,3.85,0,0,0-3.55,2V63.3H187v-21Z"/><path class="cls-6" d="M208.48,52.61a12.49,12.49,0,0,1,1.2-5.57,8.74,8.74,0,0,1,3.46-3.78,10.15,10.15,0,0,1,5.25-1.34,9.56,9.56,0,0,1,6.93,2.6,10.47,10.47,0,0,1,3,7.06l0,1.44a11,11,0,0,1-2.7,7.75,10.47,10.47,0,0,1-14.48,0,11.19,11.19,0,0,1-2.7-7.92Zm5.6.4a7.82,7.82,0,0,0,1.13,4.57,3.7,3.7,0,0,0,3.22,1.59,3.75,3.75,0,0,0,3.18-1.57,8.6,8.6,0,0,0,1.14-5,7.81,7.81,0,0,0-1.14-4.55,3.74,3.74,0,0,0-3.22-1.61,3.66,3.66,0,0,0-3.18,1.61A8.7,8.7,0,0,0,214.08,53Z"/><path class="cls-6" d="M237.72,63.3H232.1V33.51h5.62Z"/><path class="cls-6" d="M241.47,52.61a12.49,12.49,0,0,1,1.2-5.57,8.74,8.74,0,0,1,3.46-3.78,10.15,10.15,0,0,1,5.25-1.34,9.56,9.56,0,0,1,6.93,2.6,10.47,10.47,0,0,1,3,7.06l0,1.44a11,11,0,0,1-2.7,7.75,10.47,10.47,0,0,1-14.48,0,11.19,11.19,0,0,1-2.7-7.92Zm5.6.4a7.82,7.82,0,0,0,1.13,4.57,3.7,3.7,0,0,0,3.22,1.59,3.75,3.75,0,0,0,3.18-1.57,8.6,8.6,0,0,0,1.14-5,7.81,7.81,0,0,0-1.14-4.55,3.74,3.74,0,0,0-3.22-1.61,3.66,3.66,0,0,0-3.18,1.61A8.7,8.7,0,0,0,247.07,53Z"/><path class="cls-6" d="M264,52.65a12.33,12.33,0,0,1,2.3-7.78,7.48,7.48,0,0,1,6.2-2.95,6.52,6.52,0,0,1,5.37,2.37l.23-2h5.09V62.6a9,9,0,0,1-1.25,4.79,8.05,8.05,0,0,1-3.52,3.1,12.44,12.44,0,0,1-5.32,1.07,11.57,11.57,0,0,1-4.5-.92,8.06,8.06,0,0,1-3.32-2.38l2.49-3.41a6.57,6.57,0,0,0,5.08,2.35A4.78,4.78,0,0,0,276.3,66a4.45,4.45,0,0,0,1.24-3.38V61.49a6.48,6.48,0,0,1-5.1,2.19,7.43,7.43,0,0,1-6.12-3A12.29,12.29,0,0,1,264,52.88Zm5.61.42a7.66,7.66,0,0,0,1.14,4.47,3.64,3.64,0,0,0,3.15,1.63,3.89,3.89,0,0,0,3.66-1.93V48.4a3.89,3.89,0,0,0-3.63-1.92,3.67,3.67,0,0,0-3.17,1.65A8.65,8.65,0,0,0,269.59,53.07Z"/><path class="cls-6" d="M287.43,36.88a2.8,2.8,0,0,1,.85-2.08,3.66,3.66,0,0,1,4.59,0,2.8,2.8,0,0,1,.85,2.08,2.76,2.76,0,0,1-.86,2.09,3.17,3.17,0,0,1-2.28.82A3.14,3.14,0,0,1,288.3,39,2.73,2.73,0,0,1,287.43,36.88Zm6,26.42h-5.63v-21h5.63Z"/><path class="cls-6" d="M309.37,57.5a1.8,1.8,0,0,0-1-1.62,11.39,11.39,0,0,0-3.27-1.06q-7.49-1.57-7.48-6.36a5.79,5.79,0,0,1,2.31-4.67A9.42,9.42,0,0,1,306,41.92a10.1,10.1,0,0,1,6.39,1.88,6,6,0,0,1,2.39,4.89h-5.6a2.72,2.72,0,0,0-.78-2,3.29,3.29,0,0,0-2.42-.78,3.35,3.35,0,0,0-2.2.64,2,2,0,0,0-.77,1.63,1.72,1.72,0,0,0,.88,1.5,9.16,9.16,0,0,0,3,1,24.46,24.46,0,0,1,3.53.94q4.44,1.64,4.44,5.64a5.47,5.47,0,0,1-2.46,4.65A10.68,10.68,0,0,1,306,63.68a11.1,11.1,0,0,1-4.69-.94,7.8,7.8,0,0,1-3.21-2.58,6,6,0,0,1-1.16-3.53h5.31a2.9,2.9,0,0,0,1.11,2.28,4.37,4.37,0,0,0,2.75.8,4.07,4.07,0,0,0,2.44-.61A1.9,1.9,0,0,0,309.37,57.5Z"/><path class="cls-6" d="M326.05,54.88l-2,2v6.4h-5.6V33.51H324V50l1.09-1.4,5.37-6.3h6.73l-7.58,8.75,8.24,12.24h-6.44Z"/><path class="cls-6" d="M349.31,63.68a10.29,10.29,0,0,1-7.52-2.83,10.06,10.06,0,0,1-2.9-7.54v-.54a12.75,12.75,0,0,1,1.22-5.66,9,9,0,0,1,3.46-3.84,9.74,9.74,0,0,1,5.12-1.35,8.68,8.68,0,0,1,6.77,2.72q2.48,2.72,2.48,7.7v2.29H344.57a5.18,5.18,0,0,0,1.64,3.29,5,5,0,0,0,3.46,1.25,6.08,6.08,0,0,0,5.07-2.35l2.75,3.08a8.48,8.48,0,0,1-3.41,2.79A11.31,11.31,0,0,1,349.31,63.68Zm-.64-17.24A3.51,3.51,0,0,0,346,47.57a5.93,5.93,0,0,0-1.33,3.24h7.8v-.45a4.16,4.16,0,0,0-1-2.89A3.58,3.58,0,0,0,348.67,46.44Z"/><path class="cls-1" d="M132.52,97.72V80.85H129.4V76.74h3.12V75a7.26,7.26,0,0,1,2-5.48,7.84,7.84,0,0,1,5.67-2,13,13,0,0,1,2.85.39L143,72.26a6.86,6.86,0,0,0-1.7-.18q-3.17,0-3.16,3v1.69h4.17v4.11h-4.17V97.72Z"/><path class="cls-1" d="M154.88,98.11a10.29,10.29,0,0,1-7.51-2.83,10.08,10.08,0,0,1-2.9-7.55v-.54a12.71,12.71,0,0,1,1.22-5.65,9,9,0,0,1,3.46-3.84,9.73,9.73,0,0,1,5.11-1.35A8.71,8.71,0,0,1,161,79.06q2.47,2.72,2.48,7.7v2.29H150.15a5.23,5.23,0,0,0,1.64,3.3,5,5,0,0,0,3.46,1.24,6.06,6.06,0,0,0,5.07-2.35l2.75,3.09a8.38,8.38,0,0,1-3.41,2.78A11.18,11.18,0,0,1,154.88,98.11Zm-.63-17.24A3.48,3.48,0,0,0,151.54,82a5.82,5.82,0,0,0-1.33,3.23H158v-.45a4.18,4.18,0,0,0-1-2.89A3.63,3.63,0,0,0,154.25,80.87Z"/><path class="cls-1" d="M178.06,91.92a1.82,1.82,0,0,0-1-1.62,11.56,11.56,0,0,0-3.26-1q-7.49-1.57-7.49-6.36a5.76,5.76,0,0,1,2.32-4.67,9.32,9.32,0,0,1,6.06-1.87,10.1,10.1,0,0,1,6.39,1.88,5.92,5.92,0,0,1,2.4,4.89h-5.61a2.71,2.71,0,0,0-.78-2,3.28,3.28,0,0,0-2.42-.79,3.38,3.38,0,0,0-2.19.64,2,2,0,0,0-.78,1.63,1.75,1.75,0,0,0,.88,1.51,9.16,9.16,0,0,0,3,1,23.22,23.22,0,0,1,3.53.94q4.44,1.62,4.44,5.64a5.5,5.5,0,0,1-2.46,4.65,10.63,10.63,0,0,1-6.36,1.77,11.1,11.1,0,0,1-4.69-.94,8,8,0,0,1-3.21-2.58,6,6,0,0,1-1.16-3.54h5.31a2.94,2.94,0,0,0,1.11,2.29,4.38,4.38,0,0,0,2.75.79,4,4,0,0,0,2.44-.61A1.89,1.89,0,0,0,178.06,91.92Z"/><path class="cls-1" d="M193.83,71.58v5.16h3.59v4.11h-3.59V91.32a2.49,2.49,0,0,0,.45,1.67,2.21,2.21,0,0,0,1.7.5,9,9,0,0,0,1.65-.13v4.25a11.74,11.74,0,0,1-3.39.5c-3.93,0-5.94-2-6-6V80.85h-3.07V76.74h3.07V71.58Z"/><path class="cls-1" d="M200.5,71.31a2.78,2.78,0,0,1,.85-2.08,3.64,3.64,0,0,1,4.58,0,2.95,2.95,0,0,1,0,4.17,3.57,3.57,0,0,1-4.55,0A2.73,2.73,0,0,1,200.5,71.31Zm6,26.41h-5.63v-21h5.63Z"/><path class="cls-1" d="M218.93,90.88l3.9-14.14h5.85l-7.07,21h-5.36l-7.08-21H215Z"/><path class="cls-1" d="M243,97.72a6,6,0,0,1-.56-1.88,6.81,6.81,0,0,1-5.3,2.27,7.45,7.45,0,0,1-5.11-1.78,5.75,5.75,0,0,1-2-4.5,5.93,5.93,0,0,1,2.48-5.12q2.48-1.78,7.14-1.81h2.58V83.7a3.5,3.5,0,0,0-.74-2.33,3,3,0,0,0-2.36-.87,3.36,3.36,0,0,0-2.22.68,2.29,2.29,0,0,0-.81,1.86h-5.6a5.61,5.61,0,0,1,1.12-3.37,7.42,7.42,0,0,1,3.18-2.44,11.64,11.64,0,0,1,4.62-.88,9.16,9.16,0,0,1,6.16,2,6.81,6.81,0,0,1,2.28,5.48v9.09a10,10,0,0,0,.83,4.52v.33Zm-4.64-3.9a4.81,4.81,0,0,0,2.29-.55,3.59,3.59,0,0,0,1.55-1.48V88.18h-2.09q-4.22,0-4.48,2.91l0,.33a2.23,2.23,0,0,0,.74,1.73A2.86,2.86,0,0,0,238.38,93.82Z"/><path class="cls-1" d="M258.07,97.72h-5.63V67.93h5.63Z"/></g></g></svg>