<?xml version="1.0" standalone="no"?>
<!DOCTYPE svg PUBLIC "-//W3C//DTD SVG 20010904//EN"
 "http://www.w3.org/TR/2001/REC-SVG-20010904/DTD/svg10.dtd">
<svg version="1.0" xmlns="http://www.w3.org/2000/svg"
 width="1248.000000pt" height="1248.000000pt" viewBox="0 0 1248.000000 1248.000000"
 preserveAspectRatio="xMidYMid meet">
<metadata>
Created by potrace 1.14, written by Peter Selinger 2001-2017
</metadata>
<g transform="translate(0.000000,1248.000000) scale(0.100000,-0.100000)"
fill="#000000" stroke="none">
<path d="M11169 11086 c-2 -2 -26 -7 -54 -10 -61 -8 -123 -17 -150 -23 -11 -2
-32 -6 -46 -8 -14 -2 -55 -11 -90 -20 -35 -10 -68 -18 -74 -19 -5 -1 -16 -5
-22 -9 -7 -5 -17 -5 -23 -2 -5 3 -10 1 -10 -5 0 -6 -4 -9 -10 -5 -5 3 -17 1
-27 -4 -17 -9 -52 -22 -63 -23 -7 0 -92 -34 -137 -54 -21 -10 -40 -18 -43 -18
-3 -1 -11 -5 -17 -9 -7 -5 -13 -5 -13 0 0 4 -4 4 -8 -2 -4 -5 -50 -31 -102
-58 -52 -26 -111 -57 -131 -70 -19 -12 -57 -35 -85 -52 -27 -16 -51 -32 -54
-35 -3 -3 -30 -23 -60 -44 -30 -22 -56 -43 -58 -48 -2 -4 -7 -8 -12 -8 -34 0
-320 -311 -320 -348 0 -6 -4 -12 -9 -14 -25 -9 -217 -349 -204 -362 3 -3 1 -6
-5 -6 -9 0 -19 -19 -27 -50 -1 -3 -7 -18 -14 -35 -42 -102 -103 -301 -117
-380 -2 -16 -7 -37 -9 -45 -2 -8 -6 -31 -9 -50 -3 -19 -7 -44 -10 -55 -14 -71
-20 -242 -20 -615 l-1 -425 -478 -1 c-262 -1 -489 -5 -505 -9 -42 -12 -92 -12
-92 0 0 7 -3 7 -8 0 -9 -12 -132 -14 -132 -2 0 4 -5 5 -12 1 -19 -12 -128 -11
-128 1 0 7 -3 7 -8 0 -8 -12 -192 -14 -192 -2 0 5 -6 5 -12 0 -17 -10 -118
-11 -125 -1 -2 5 -10 5 -16 1 -18 -11 -167 -9 -167 2 0 7 -3 7 -8 0 -8 -11
-91 -14 -107 -3 -7 4 -10 287 -10 817 l0 811 -227 0 c-139 0 -228 4 -228 10 0
5 8 17 18 27 10 10 33 38 52 63 19 25 37 47 40 50 3 3 30 37 60 75 30 39 57
72 60 75 3 3 18 23 35 45 16 22 34 45 40 51 5 6 24 28 40 49 17 21 44 55 60
75 17 20 41 52 55 70 14 18 31 39 38 46 6 7 12 16 12 21 0 5 -508 9 -1128 9
l-1128 0 -64 -83 c-36 -46 -70 -89 -76 -96 -10 -11 -75 -97 -194 -252 -30 -39
-63 -80 -72 -89 -10 -10 -18 -20 -18 -24 0 -4 -14 -23 -30 -42 -33 -39 -33
-38 -75 -95 -16 -22 -34 -45 -40 -52 -5 -7 -14 -18 -20 -25 -87 -114 -111
-144 -117 -146 -5 -2 -8 -9 -8 -16 0 -6 -9 -18 -20 -26 -11 -8 -20 -18 -20
-22 0 -4 -7 -16 -15 -25 -25 -31 -109 -138 -135 -173 -14 -18 -35 -44 -47 -57
-12 -12 -20 -23 -17 -23 4 0 -8 -17 -25 -37 -18 -21 -35 -42 -39 -48 -48 -66
-149 -192 -159 -198 -7 -4 -13 -12 -13 -18 0 -8 -85 -120 -143 -189 -6 -8 -12
-17 -12 -20 0 -5 -26 -36 -67 -81 -10 -10 -18 -22 -18 -25 0 -5 -64 -88 -103
-134 -6 -8 -31 -39 -54 -70 -23 -30 -46 -59 -50 -65 -5 -5 -38 -48 -73 -95
-36 -46 -72 -94 -82 -105 -19 -23 -264 -340 -300 -388 -12 -17 -31 -39 -40
-49 -10 -10 -18 -20 -18 -23 0 -3 -34 -48 -75 -100 -41 -51 -75 -97 -75 -100
0 -4 -6 -12 -12 -19 -7 -7 -22 -25 -33 -41 -11 -15 -48 -65 -82 -111 -35 -46
-60 -84 -56 -84 4 0 0 -6 -8 -12 -9 -7 -47 -56 -84 -108 -38 -52 -72 -96 -77
-98 -4 -2 -8 -9 -8 -15 0 -7 -11 -24 -25 -39 -14 -15 -25 -31 -25 -37 0 -5
-11 -19 -25 -32 -13 -13 -25 -27 -25 -31 0 -5 -7 -16 -16 -25 -33 -36 -284
-388 -284 -398 0 -6 -3 -5 -8 2 -4 6 -7 918 -7 2025 l0 2014 -923 0 -922 0 2
-4465 3 -4465 910 -1 c501 0 916 1 922 3 10 3 13 268 13 1281 l0 1276 63 66
c71 75 221 238 293 318 27 30 63 68 79 86 53 56 239 257 257 278 20 22 175
191 226 245 18 19 33 33 35 31 69 -102 207 -321 207 -329 0 -6 4 -10 9 -10 5
0 16 -15 25 -34 8 -18 22 -39 31 -46 8 -7 15 -16 15 -21 0 -4 50 -84 110 -178
61 -94 110 -175 110 -181 0 -5 3 -10 8 -10 6 0 104 -149 138 -210 6 -11 18
-28 27 -38 10 -10 17 -22 17 -26 0 -4 11 -22 25 -40 14 -18 25 -35 25 -38 0
-3 36 -60 80 -127 44 -66 80 -125 80 -131 0 -5 5 -10 10 -10 6 0 10 -6 10 -13
0 -7 8 -22 17 -33 10 -11 23 -29 29 -40 20 -33 214 -336 250 -389 19 -28 34
-54 34 -58 0 -5 6 -15 13 -22 26 -30 37 -44 37 -49 0 -3 30 -52 67 -108 37
-57 66 -105 64 -107 -1 -2 2 -7 7 -10 7 -5 117 -172 157 -239 6 -9 15 -20 20
-24 7 -5 7 -8 0 -8 -7 0 -7 -3 0 -8 11 -8 85 -119 85 -127 0 -3 5 -11 11 -18
5 -7 33 -48 61 -92 28 -44 64 -99 79 -122 16 -23 29 -44 29 -48 0 -4 14 -24
30 -45 17 -21 30 -40 30 -43 0 -3 23 -40 50 -81 28 -42 50 -78 50 -81 0 -3 5
-11 11 -18 18 -21 117 -177 112 -177 -2 0 2 -7 9 -15 27 -30 38 -44 38 -50 0
-7 52 -87 67 -103 7 -7 13 -16 13 -20 0 -4 294 -7 652 -6 523 0 659 -2 686
-13 17 -7 32 -11 32 -8 0 3 13 -1 29 -9 16 -9 31 -12 35 -9 3 4 6 2 6 -3 0 -5
8 -10 18 -10 9 -1 60 -11 112 -22 107 -24 168 -33 315 -49 140 -15 599 -8 715
12 14 2 45 7 70 10 25 3 54 7 65 9 23 4 111 17 140 21 11 2 38 8 60 13 22 6
55 14 74 17 19 3 37 8 41 10 3 2 17 6 31 9 33 6 130 33 152 41 16 7 17 48 17
675 0 368 -4 671 -9 674 -4 3 -11 2 -15 -1 -8 -8 -30 -11 -191 -27 -115 -12
-191 -16 -330 -17 -146 -2 -173 1 -265 27 -30 9 -57 16 -60 17 -23 2 -167 94
-193 122 -48 52 -114 197 -138 305 -15 62 -18 3528 -4 3533 5 2 258 3 560 2
309 -1 555 3 562 8 9 6 636 12 844 8 l26 -1 -1 -140 c-1 -77 3 -140 7 -140 5
0 5 -5 1 -12 -10 -16 -11 -1028 -1 -1028 5 0 5 -5 1 -12 -11 -17 -11 -228 -1
-228 5 0 5 -5 1 -12 -10 -16 -11 -1028 -1 -1028 5 0 5 -5 1 -12 -11 -17 -11
-228 -1 -228 5 0 5 -5 1 -12 -10 -16 -11 -1028 -1 -1028 5 0 5 -5 1 -12 -11
-17 -11 -228 -1 -228 5 0 5 -5 1 -12 -10 -16 -11 -548 -1 -548 5 0 5 -5 1 -12
-11 -17 -11 -228 -1 -228 5 0 5 -6 0 -12 -11 -18 -12 -68 -1 -68 5 0 6 -5 2
-12 -11 -17 -11 -228 0 -228 5 0 4 -6 -1 -12 -5 -7 -9 -20 -8 -28 1 -8 3 -26
3 -40 l2 -25 887 0 c879 0 888 0 894 20 3 11 2 32 -2 48 -4 15 -4 27 0 27 8 0
6 83 -3 106 -3 8 -2 14 2 14 8 0 6 86 -3 108 -2 6 -1 12 3 12 9 0 7 82 -2 106
-3 8 -2 14 2 14 8 0 6 86 -3 108 -2 6 -1 12 3 12 4 0 7 16 7 35 0 19 -4 35 -8
35 -5 0 -5 5 -1 11 8 14 8 134 -1 148 -3 6 -2 11 3 11 9 0 8 81 -2 106 -3 8
-2 14 2 14 8 0 6 86 -3 108 -2 6 -1 12 3 12 9 0 7 82 -2 106 -3 8 -2 14 2 14
8 0 6 86 -3 107 -2 7 -1 13 3 13 9 0 7 82 -2 106 -3 8 -2 14 2 14 8 0 6 86 -3
108 -2 6 -1 12 3 12 9 0 7 82 -2 106 -3 8 -2 14 2 14 8 0 6 86 -3 108 -2 6 -1
12 3 12 9 0 7 82 -2 106 -3 8 -2 14 2 14 8 0 6 165 -2 187 -3 7 -2 13 2 13 9
0 7 82 -2 106 -3 8 -2 14 2 14 8 0 6 86 -3 107 -2 7 -1 13 3 13 9 0 7 82 -2
106 -3 8 -2 14 2 14 8 0 6 86 -3 108 -2 6 -1 12 3 12 9 0 7 82 -2 106 -3 8 -2
14 2 14 8 0 6 86 -3 108 -2 6 -1 12 3 12 9 0 7 82 -2 106 -3 8 -2 14 2 14 8 0
6 86 -3 108 -2 6 -1 12 3 12 9 0 7 82 -2 106 -3 8 -2 14 2 14 8 0 6 165 -2
187 -3 7 -2 13 2 13 9 0 7 82 -2 106 -3 8 -2 14 2 14 8 0 6 86 -3 108 -2 6 -1
12 3 12 9 0 7 82 -2 106 -3 8 -2 14 2 14 8 0 6 86 -3 108 -2 6 -1 12 3 12 9 0
7 82 -2 106 -3 8 -2 14 2 14 8 0 6 86 -3 108 -2 6 -1 12 3 12 9 0 7 82 -2 106
-3 8 -2 14 2 14 8 0 6 86 -3 108 -2 6 -1 12 3 12 9 0 7 82 -2 106 -3 8 -2 14
2 14 8 0 6 165 -2 187 -3 7 -2 13 2 13 9 0 7 82 -2 106 -3 8 -2 14 2 14 8 0 6
86 -3 108 -2 6 -1 12 3 12 9 0 7 82 -2 106 -3 8 -2 14 2 14 8 0 6 86 -3 108
-2 6 -1 12 3 12 4 0 7 18 7 40 0 22 -3 40 -7 40 -4 0 -3 11 2 24 6 17 5 26 -3
30 -7 2 -7 5 -1 5 6 1 9 16 8 36 -2 22 1 35 9 36 7 0 303 0 660 1 596 0 647 1
648 16 4 81 1 1274 -4 1278 -3 3 -300 7 -659 7 l-653 2 -1 46 c0 25 -4 53 -7
63 -4 9 -3 16 1 16 8 0 6 86 -3 108 -2 6 -1 12 3 12 9 0 7 82 -2 106 -3 8 -2
14 2 14 4 0 7 34 7 75 0 41 -4 75 -8 75 -5 0 -6 4 -2 10 3 5 8 44 10 86 6 86
12 143 22 194 9 46 10 50 12 53 2 1 4 12 7 25 2 13 11 36 19 53 9 16 13 29 10
29 -11 0 77 159 105 190 8 9 29 32 46 51 72 79 222 174 309 195 17 4 35 9 40
13 6 3 15 6 20 8 6 1 21 4 35 8 61 14 129 26 189 32 75 8 396 7 456 -2 151
-22 210 -31 243 -39 20 -4 22 -1 23 42 1 82 7 514 13 928 l5 402 -27 7 c-15 4
-38 9 -52 11 -33 6 -59 12 -90 19 -77 17 -206 39 -290 49 -25 3 -61 8 -81 11
-99 13 -199 18 -470 21 -163 2 -298 2 -300 0z m-6779 -4200 c0 -13 6 -26 13
-28 6 -2 227 -4 490 -3 324 0 477 -3 478 -10 0 -5 1 -546 2 -1202 2 -1134 1
-1191 -15 -1176 -10 9 -18 22 -18 29 0 7 -4 14 -8 16 -11 4 -182 266 -182 277
0 5 -4 11 -8 13 -11 4 -92 127 -92 139 0 5 -4 9 -9 9 -5 0 -16 15 -25 34 -8
18 -22 39 -31 46 -8 7 -15 17 -15 22 0 11 -42 72 -52 76 -5 2 -8 8 -8 12 0 9
-139 223 -159 247 -6 7 -11 14 -11 17 0 3 -18 31 -41 63 -22 32 -45 68 -50 81
-5 12 -13 22 -19 22 -5 0 -10 6 -10 14 0 8 -6 21 -13 28 -18 20 -88 126 -103
158 -4 8 -10 17 -14 20 -3 3 -37 52 -75 110 -38 58 -121 184 -184 280 -64 96
-122 187 -130 203 -7 15 -17 27 -22 27 -5 0 -9 6 -9 14 0 7 -7 19 -15 26 -23
19 -18 39 22 89 21 25 42 52 48 59 5 7 15 18 20 25 6 7 60 74 120 150 60 75
113 137 117 137 4 0 8 -11 8 -24z"/>
</g>
</svg>
